<?xml version="1.0" encoding="utf-8"?>
<!-- Generator: Adobe Illustrator 16.0.0, SVG Export Plug-In . SVG Version: 6.00 Build 0)  -->
<!DOCTYPE svg PUBLIC "-//W3C//DTD SVG 1.1//EN" "http://www.w3.org/Graphics/SVG/1.1/DTD/svg11.dtd">
<svg version="1.1" id="Capa_1" xmlns="http://www.w3.org/2000/svg" xmlns:xlink="http://www.w3.org/1999/xlink" x="0px" y="0px"
	 width="595.279px" height="841.89px" viewBox="0 0 595.279 841.89" enable-background="new 0 0 595.279 841.89"
	 xml:space="preserve">
<path fill="#FFFFFF" d="M535.52,294.564L410.417,421.992c-0.93,0.93-0.93,2.324,0,3.256l87.549,93.244
	c5.929,5.93,5.929,15.463,0,21.393c-2.907,2.906-6.86,4.418-10.697,4.418c-3.836,0-7.789-1.512-10.696-4.418l-87.199-92.896
	c-0.93-0.93-2.441-0.93-3.371,0l-21.277,21.627c-17.788,18.02-41.391,28.02-66.736,28.135c-25.694,0.117-50.11-10.695-68.131-28.949
	l-20.463-20.813c-0.931-0.93-2.441-0.93-3.372,0l-87.199,92.896c-2.906,2.908-6.859,4.418-10.696,4.418s-7.79-1.51-10.696-4.418
	c-5.93-5.93-5.93-15.463,0-21.393l87.548-93.244c0.813-0.932,0.813-2.326,0-3.256L59.761,294.564
	c-1.512-1.512-3.953-0.465-3.953,1.627v254.972c0,20.461,16.742,37.203,37.205,37.203h409.255c20.463,0,37.205-16.742,37.205-37.203
	V296.192C539.473,294.099,536.914,293.169,535.52,294.564z"/>
<path fill="#FFFFFF" d="M297.64,466.406c17.207,0,33.368-6.744,45.46-19.068l182.421-185.676
	c-6.395-5.116-14.301-8.139-23.021-8.139H92.897c-8.721,0-16.743,3.023-23.021,8.139l182.421,185.676
	C264.272,459.544,280.433,466.406,297.64,466.406z"/>
</svg>
