<?xml version="1.0" encoding="utf-8"?>
<!-- Generator: Adobe Illustrator 16.0.0, SVG Export Plug-In . SVG Version: 6.00 Build 0)  -->
<!DOCTYPE svg PUBLIC "-//W3C//DTD SVG 1.1//EN" "http://www.w3.org/Graphics/SVG/1.1/DTD/svg11.dtd">
<svg version="1.1" id="Capa_1" xmlns="http://www.w3.org/2000/svg" xmlns:xlink="http://www.w3.org/1999/xlink" x="0px" y="0px"
	 width="595.279px" height="841.89px" viewBox="0 0 595.279 841.89" enable-background="new 0 0 595.279 841.89"
	 xml:space="preserve">
<path fill="#FFFFFF" d="M139.403,514.074c-35.81,0-64.992,29.184-64.992,64.877c0,35.809,29.183,64.643,64.992,64.643
	c35.926,0,64.992-28.949,64.992-64.643S175.328,514.074,139.403,514.074z"/>
<path fill="#FFFFFF" d="M74.41,346.535v92.896c55.808,0,109.405,16.51,148.819,55.924s55.808,92.896,55.808,148.82h93.013
	C372.05,481.519,237.182,346.535,74.41,346.535z"/>
<path fill="#FFFFFF" d="M74.41,197.715v92.896c198.813,0,353.331,154.632,353.331,353.564h93.129
	C520.87,398.041,320.893,197.715,74.41,197.715z"/>
</svg>
