<?xml version="1.0" encoding="utf-8"?>
<!-- Generator: Adobe Illustrator 16.0.0, SVG Export Plug-In . SVG Version: 6.00 Build 0)  -->
<!DOCTYPE svg PUBLIC "-//W3C//DTD SVG 1.1//EN" "http://www.w3.org/Graphics/SVG/1.1/DTD/svg11.dtd">
<svg version="1.1" id="Capa_1" xmlns="http://www.w3.org/2000/svg" xmlns:xlink="http://www.w3.org/1999/xlink" x="0px" y="0px"
	 width="595.279px" height="841.89px" viewBox="0 0 595.279 841.89" enable-background="new 0 0 595.279 841.89"
	 xml:space="preserve">
<path fill="#FFFFFF" d="M532.031,383.74l-2.441-10.348H304.615v95.222h134.403c-13.952,66.271-78.712,101.15-131.612,101.15
	c-38.484,0-79.061-16.16-105.918-42.205c-27.555-26.74-45.111-66.154-45.111-106.731c0-40.111,18.021-80.223,44.297-106.615
	c26.16-26.276,65.807-41.158,105.221-41.158c45.111,0,77.433,23.951,89.524,34.879l67.667-67.317
	c-19.882-17.44-74.41-61.389-159.4-61.389c-65.573,0-128.474,25.114-174.398,70.922c-45.344,45.111-68.829,110.336-68.829,170.794
	s22.207,122.544,66.155,168.003c46.971,48.482,113.475,73.828,181.955,73.828c62.318,0,121.382-24.414,163.47-68.713
	c41.391-43.6,62.783-103.941,62.783-167.189C534.822,400.25,532.148,384.438,532.031,383.74L532.031,383.74z"/>
</svg>
