<?xml version="1.0" encoding="utf-8"?>
<!-- Generator: Adobe Illustrator 16.0.0, SVG Export Plug-In . SVG Version: 6.00 Build 0)  -->
<!DOCTYPE svg PUBLIC "-//W3C//DTD SVG 1.1//EN" "http://www.w3.org/Graphics/SVG/1.1/DTD/svg11.dtd">
<svg version="1.1" id="Capa_1" xmlns="http://www.w3.org/2000/svg" xmlns:xlink="http://www.w3.org/1999/xlink" x="0px" y="0px"
	 width="595.279px" height="841.89px" viewBox="0 0 595.279 841.89" enable-background="new 0 0 595.279 841.89"
	 xml:space="preserve">
<path fill="#FFFFFF" d="M572.027,250.616c-20.229,8.953-41.855,14.999-64.644,17.789c23.253-13.952,41.158-36.042,49.529-62.318
	c-21.742,12.906-45.809,22.323-71.503,27.323c-20.579-21.974-49.878-35.694-82.2-35.694c-62.202,0-112.545,50.459-112.545,112.662
	c0,8.836,0.93,17.44,2.906,25.695c-93.594-4.651-176.607-49.529-232.066-117.777c-9.649,16.626-15.23,36.042-15.23,56.622
	c0,39.065,19.998,73.596,50.227,93.826c-18.603-0.465-36.042-5.581-51.156-14.068v1.395c0,54.645,38.832,100.104,90.338,110.452
	c-9.417,2.559-19.416,3.953-29.647,3.953c-7.209,0-14.301-0.697-21.16-2.092c14.301,44.762,55.924,77.316,105.22,78.246
	c-38.483,30.229-87.083,48.25-139.867,48.25c-9.068,0-18.021-0.582-26.857-1.627c49.646,32.32,108.824,50.924,172.306,50.924
	c207.302,0,320.544-171.725,320.544-320.661c0-4.883-0.116-9.767-0.349-14.533C537.845,293.053,556.912,273.288,572.027,250.616z"/>
</svg>
