<?xml version="1.0" encoding="utf-8"?>
<!-- Generator: Adobe Illustrator 16.0.0, SVG Export Plug-In . SVG Version: 6.00 Build 0)  -->
<!DOCTYPE svg PUBLIC "-//W3C//DTD SVG 1.1//EN" "http://www.w3.org/Graphics/SVG/1.1/DTD/svg11.dtd">
<svg version="1.1" id="Capa_1" xmlns="http://www.w3.org/2000/svg" xmlns:xlink="http://www.w3.org/1999/xlink" x="0px" y="0px"
	 width="595.279px" height="841.89px" viewBox="0 0 595.279 841.89" enable-background="new 0 0 595.279 841.89"
	 xml:space="preserve">
<path fill="#FFFFFF" d="M496.222,197.715H99.059c-13.604,0-24.648,11.045-24.648,24.648v397.164
	c0,13.604,11.045,24.648,24.648,24.648H297.64V467.451h-53.365v-65.108h53.365v-48.134c0-57.667,39.995-89.06,91.501-89.06
	c24.648,0,51.157,1.86,57.319,2.674v60.226h-41.042c-28.021,0-33.368,13.254-33.368,32.787v41.507h66.736l-8.72,65.108H372.05
	v176.725h124.172c13.603,0,24.648-11.045,24.648-24.648V222.363C520.87,208.76,509.824,197.715,496.222,197.715z"/>
</svg>
