<?xml version="1.0" encoding="utf-8"?>
<!-- Generator: Adobe Illustrator 16.0.0, SVG Export Plug-In . SVG Version: 6.00 Build 0)  -->
<!DOCTYPE svg PUBLIC "-//W3C//DTD SVG 1.1//EN" "http://www.w3.org/Graphics/SVG/1.1/DTD/svg11.dtd">
<svg version="1.1" id="Capa_1" xmlns="http://www.w3.org/2000/svg" xmlns:xlink="http://www.w3.org/1999/xlink" x="0px" y="0px"
	 width="595.279px" height="841.89px" viewBox="0 0 595.279 841.89" enable-background="new 0 0 595.279 841.89"
	 xml:space="preserve">
<path fill="#FFFFFF" d="M496.066,507.757c-29.875-0.002-59.571-4.6-88.047-13.637c-8.684-2.484-18.603-1.248-24.802,6.201
	l-54.574,54.561c-70.691-35.959-127.733-93.014-163.704-163.706l54.574-54.56c6.199-6.2,8.676-16.119,6.199-24.803
	c-9.926-28.521-14.884-58.291-14.884-89.295c0-13.637-11.161-24.803-24.804-24.803H99.213c-13.643,0-24.803,11.166-24.803,24.803
	c0,233.149,188.508,421.657,421.655,421.657c13.638,0,24.805-11.166,24.805-24.803V532.56
	C520.87,518.923,509.703,507.757,496.066,507.757L496.066,507.757z"/>
</svg>
